**ABCDEFGHIJKLMNOPQRSTUVWXYZabcdefghijklmnopqrstuvwxyz**************************
**PARASOLID !"#$%&'()*+,-./:;<=>?@[\]^_`{|}~0123456789**************************
**PART1;
MC=AMD64;
MC_MODEL=Intel64 Family 6 Model 94 Stepping 3, GenuineIntel;
MC_ID=unknown;
OS=Windows_NT;
OS_RELEASE=unknown;
FRU=Parasolid Version 31.0, build 290,  9- 1-2019;
APPL=SOLIDWORKS 2019-2019304;
SITE=;
USER=unknown;
FORMAT=text;
GUISE=transmit;
KEY=Actionneur Aimant;
FILE=Actionneur Aimant.x_t;
DATE=Sun Feb  2 19:43:28 2020;
**PART2;
SCH=SCH_3100290_31001;
USFLD_SIZE=0;
**PART3;
**END_OF_HEADER*****************************************************************
T51 : TRANSMIT FILE created by modeller version 310029023 SCH_3100290_31001_1300
6215 0 12 34 CCCCCCI4 mesh1006 0 I8 polyline1008 0 CCCCCCCDI5 owner1040 0 CCCCCC
I13 boundary_mesh1006 0 I17 boundary_polyline1008 0 CCCA16 index_map_offset0 0 1
 dA9 index_map82 0 A17 node_id_index_map82 0 A20 schema_embedding_map82 0 A5 chi
ld12 0 A14 lowest_node_id0 0 1 dA16 mesh_offset_data206 0 Z1 1476 2 3 0 0 0 0 0
 0 1e3 1e-8 0 4 0 1 0 1 1 5 6 7 8 0 0 9 10 11 0 0 0 0 0 0 0 81 255 2 2 1459 12 1
 13 0 0 0 0 14 70 11 CI9 list_type0 0 1 uI10 notransmit0 0 1 lCCCDCCDI12 finger_
index0 0 1 dI12 finger_block1012 0 CZ3 0 4 T1 0 0 10 20 1 15 15 13 255 5 889 0 1
 0 16 0 0 17 0 50 255 6 918 0 16 18 0 0 +0 0 -.03140262473388605 0 0 1 1 0 0 30
 255 7 919 0 19 20 0 0 +-.00704294478527607 .0209355828220859 -.0314026247338860
5 123908819712629e-30 1 0 29 255 8 849 0 11 21 0 -.00704294478527608 -.042064417
1779141 -.03140262473388605 19 8 CCCCCCCA5 owner12 0 Z9 938 0 1 17 0 22 V0 16 25
5 10 861 0 ?23 0 24 20 0 0 1 18 255 11 846 0 25 0 26 8 ?1 17 255 25 0 27 28 29 1
1 30 19 0 23 -18 26 842 0 30 11 31 21 ?1 17 30 0 32 33 34 26 25 19 0 29 +18 31 8
32 0 35 26 36 37 ?1 29 21 845 0 26 37 8 -.00704294478527607 .0209355828220859 -.
03140262473388605 29 37 835 0 31 38 21 -.01204294478527606 .0209355828220859 -.0
3140262473388605 29 38 831 0 36 39 37 -.01204294478527608 -.0420644171779141 -.0
3140262473388605 18 36 828 0 40 31 41 38 ?1 29 39 554 0 41 42 38 -.0140429447852
7606 .0209355828220859 .001 18 41 552 0 43 36 44 39 ?1 29 42 551 0 44 45 39 -.01
404294478527606 -.0420644171779141 .001 18 44 549 0 46 41 47 42 ?1 29 45 492 0 4
7 48 42 -.00504294478527607 -.0420644171779141 .001 18 47 490 0 49 44 50 45 ?1 2
9 48 489 0 50 51 45 -.00504294478527608 .0209355828220859 .001 18 50 487 0 52 47
 53 48 ?1 29 51 397 0 53 54 48 -.01204294478527608 -.0420644171779141 -.001 18 5
3 395 0 55 50 56 51 ?1 29 54 394 0 56 57 51 -.01204294478527606 .020935582822085
9 -.001 18 56 392 0 58 53 59 54 ?1 29 57 385 0 59 60 54 -.01304294478527606 .020
9355828220859 0 18 59 383 0 61 56 62 57 ?1 29 60 382 0 62 63 57 -.01304294478527
608 -.0420644171779141 0 18 62 380 0 64 59 65 60 ?1 29 63 291 0 65 66 60 -.00704
294478527607 .0209355828220859 -.001 18 65 289 0 33 62 67 63 ?1 29 66 288 0 67 6
8 63 -.00704294478527608 -.0420644171779141 -.001 18 67 286 0 69 65 70 66 ?1 29
 68 279 0 70 71 66 -.00604294478527608 -.0420644171779141 0 18 70 277 0 72 67 73
 68 ?1 29 71 276 0 73 74 68 -.00604294478527607 .0209355828220859 0 18 73 274 0
 75 70 76 71 ?1 29 74 1112 0 76 77 71 -.01404294478527606 .0209355828220859 .015
 18 76 1064 0 78 73 79 74 ?1 29 77 1113 0 79 80 74 -.00504294478527607 .02093558
28220859 .015 18 79 1063 0 81 76 82 77 ?1 29 80 1114 0 82 83 77 -.00504294478527
607 -.0420644171779141 .015 18 82 1062 0 84 79 85 80 ?1 29 83 1115 0 85 0 80 -.0
1404294478527606 -.0420644171779141 .015 18 85 1059 0 86 82 0 83 ?1 17 86 0 87 8
8 89 85 90 91 0 92 -15 255 87 89 0 93 94 0 17 88 0 87 93 86 76 95 96 0 0 -17 89
 0 87 86 93 44 97 98 0 90 +17 90 0 99 64 92 44 86 91 0 0 +16 91 82 0 ?90 100 101
 102 0 0 1 17 92 0 99 90 84 85 103 104 0 95 -15 99 683 0 105 106 0 17 84 0 99 92
 49 82 107 101 0 103 -17 103 0 108 109 95 82 92 104 0 110 +16 104 1049 0 ?103 11
1 96 112 0 0 1 17 95 0 108 103 113 85 88 96 0 0 +15 108 1084 0 95 114 0 17 113 0
 108 95 109 76 115 116 0 88 +16 96 1046 0 ?95 104 117 118 0 0 1 16 117 1162 0 ?1
19 96 120 121 0 0 1 30 118 1107 0 96 122 112 0 +-.01404294478527606 .02093558282
20859 .015 0 -1 0 31 255 122 1184 0 120 121 118 0 +-.0095 .0209355828220859 .008
 385494105772624e-30 1 0 -1 385494105772624e-30 0 .0018 30 112 1106 0 104 118 12
3 0 +-.01404294478527606 -.0420644171779141 .015 1 0 0 30 123 1105 0 111 112 124
 0 +-.00504294478527607 .0209355828220859 .015 0 1 0 16 111 1052 0 ?109 116 104
 123 0 0 1 30 124 1104 0 116 123 125 0 +-.01404294478527606 .0209355828220859 .0
15 -1 0 0 16 116 1055 0 ?113 126 111 124 0 0 1 31 125 1014 0 126 124 127 0 +-.00
704294478527607 -.01003641103271136 -.02283532142399735 1 -123908819712629e-30 0
 123908819712629e-30 1 0 .0025 16 126 989 0 ?128 129 116 125 0 0 1 31 127 1013 0
 129 125 130 0 +-.01204294478527606 -.01003641103271134 -.02283532142399735 1 -1
376764663473656e-31 0 1376764663473656e-31 1 0 .0025 16 129 985 0 ?131 132 126 1
27 0 0 1 30 130 227 0 132 127 133 0 +-.00704294478527607 .0209355828220859 -.063
 0 0 1 16 132 843 0 ?33 134 129 130 0 0 1 30 133 226 0 134 130 135 0 +-.01204294
478527606 .0209355828220859 -.063 0 0 1 16 134 833 0 ?58 136 132 133 0 0 1 30 13
5 225 0 136 133 137 0 +-.01204294478527608 -.0420644171779141 -.063 0 0 1 16 136
 829 0 ?55 138 134 135 0 0 1 30 137 224 0 138 135 139 0 +-.00704294478527608 -.0
420644171779141 -.063 0 0 1 16 138 847 0 ?69 140 136 137 0 0 1 30 139 95 0 140 1
37 141 0 +-.01404294478527606 .0209355828220859 .01 0 0 -1 16 140 79 0 ?93 142 1
38 139 0 0 1 30 141 96 0 142 139 143 0 +-.00504294478527608 .0209355828220859 .0
1 0 0 -1 16 142 80 0 ?144 101 140 141 0 0 1 30 143 97 0 101 141 102 0 +-.0050429
4478527607 -.0420644171779141 .01 0 0 -1 16 101 81 0 ?107 91 142 143 0 0 1 30 10
2 98 0 91 143 145 0 +-.01404294478527606 -.0420644171779141 .01 0 0 -1 30 145 28
2 0 100 102 146 0 +-.00604294478527607 748774155932145e-33 0 123908819712629e-30
 1 0 16 100 280 0 ?147 148 91 145 0 0 1 30 146 294 0 148 145 149 0 --.0070429447
8527607 872682975644774e-33 -.001 123908819712629e-30 1 0 16 148 292 0 ?150 151
 100 146 0 0 1 31 149 331 0 151 146 152 0 --.00604294478527608 -.042064417177914
1 -.001 0 1 0 0 0 1 .001 16 151 307 0 ?153 154 148 149 0 0 1 31 152 356 0 154 14
9 155 0 --.00604294478527607 .0209355828220859 -.001 -385494105772624e-30 -1 0 1
 -385494105772624e-30 0 .001 16 154 332 0 ?156 157 151 152 0 0 1 30 155 388 0 15
7 152 158 0 +-.01304294478527606 179570654880061e-32 0 -1376764663473656e-31 -1
 0 16 157 386 0 ?159 160 154 155 0 0 1 30 158 400 0 160 155 161 0 --.01204294478
527606 1658030082453245e-33 -.001 -1376764663473656e-31 -1 0 16 160 398 0 ?162 1
63 157 158 0 0 1 31 161 437 0 163 158 164 0 --.01304294478527606 .02093558282208
59 -.001 -385494105772624e-30 -1 0 1 -385494105772624e-30 0 .001 16 163 413 0 ?1
65 166 160 161 0 0 1 31 164 462 0 166 161 167 0 --.01304294478527608 -.042064417
1779141 -.001 0 1 0 0 0 1 .001 16 166 438 0 ?168 169 163 164 0 0 1 30 167 495 0
 169 164 170 0 +-.00504294478527608 .0209355828220859 .001 -1101411730778924e-31
 1 0 16 169 493 0 ?171 172 166 167 0 0 1 31 170 501 0 172 167 173 0 --.006042944
78527607 -.0420644171779141 .001 0 1 0 0 0 1 .001 16 172 499 0 ?49 174 169 170 0
 0 1 31 173 508 0 174 170 175 0 --.00604294478527608 .0209355828220859 .001 -385
494105772624e-30 -1 0 1 -385494105772624e-30 0 .001 16 174 506 0 ?75 98 172 173
 0 0 1 30 175 557 0 98 173 176 0 +-.01404294478527606 .0209355828220859 .001 0 -
1 0 16 98 555 0 ?89 177 174 175 0 0 1 31 176 563 0 177 175 178 0 --.013042944785
27606 .0209355828220859 .001 -385494105772624e-30 -1 0 1 -385494105772624e-30 0
 .001 16 177 561 0 ?43 179 98 176 0 0 1 31 178 570 0 179 176 180 0 --.0130429447
8527606 -.0420644171779141 .001 0 1 0 0 0 1 .001 16 179 568 0 ?64 181 177 178 0
 0 1 30 180 838 0 181 178 182 0 +-.01204294478527606 .0209355828220859 -.0314026
2473388605 -1376764663473656e-31 -1 0 16 181 836 0 ?40 19 179 180 0 0 1 30 182 9
21 0 24 180 20 0 +-.01404294478527606 .0209355828220859 -.03140262473388605 -1 3
85494105772624e-30 0 16 24 855 0 ?35 10 19 182 0 0 1 30 20 920 0 10 182 7 0 +-.0
1404294478527606 -.0420644171779141 -.03140262473388605 1 0 0 17 35 0 183 58 184
 31 29 24 0 185 +16 19 850 0 ?30 24 181 7 0 0 1 15 183 677 0 184 186 0 17 58 0 1
83 187 35 56 188 134 0 165 +17 184 0 183 35 189 26 33 132 0 0 -17 29 0 27 25 185
 26 35 24 0 184 -17 185 0 27 29 28 31 40 181 0 188 -15 27 894 0 28 16 0 17 28 0
 27 185 25 36 23 10 0 105 -17 40 0 190 55 188 36 185 181 0 28 +17 188 0 190 40 1
62 31 58 134 0 0 -15 190 662 0 188 191 0 17 162 0 190 188 55 56 192 160 0 0 +17
 55 0 190 162 40 53 105 136 0 193 +17 192 0 194 168 165 53 162 160 0 0 -15 194 3
87 0 195 196 0 17 168 0 194 195 192 62 193 166 0 159 +17 165 0 194 192 195 56 18
7 163 0 162 +17 195 0 194 165 168 59 159 157 0 0 -17 187 0 183 43 58 59 165 163
 0 195 -17 43 0 183 78 187 41 61 177 0 97 +17 78 0 183 115 43 76 93 140 0 113 -1
7 61 0 197 159 97 59 43 177 0 187 -17 97 0 197 61 46 41 89 98 0 93 -15 197 556 0
 97 198 0 17 46 0 197 97 159 44 64 179 0 89 -17 93 0 87 89 88 41 78 140 0 0 +17
 159 0 197 46 61 62 195 157 0 0 +17 64 0 99 193 90 62 46 179 0 168 +17 193 0 99
 105 64 53 168 166 0 192 -17 105 0 99 23 193 36 55 136 0 0 -17 23 0 99 69 105 11
 28 10 0 34 +17 69 0 99 199 23 67 34 138 0 153 +17 34 0 32 30 150 11 69 138 0 0
 -15 32 673 0 34 200 0 17 150 0 32 34 33 67 201 148 0 0 +17 33 0 32 150 30 65 18
4 132 0 189 +17 201 0 202 156 153 65 150 148 0 0 -15 202 281 0 203 204 0 17 156
 0 202 203 201 73 189 154 0 147 +17 153 0 202 201 203 67 199 151 0 150 +17 203 0
 202 153 156 70 147 100 0 0 -17 199 0 99 49 69 70 153 151 0 203 -17 49 0 99 84 1
99 47 72 172 0 205 +17 72 0 206 147 205 70 49 172 0 199 -17 205 0 206 72 52 47 1
71 169 0 107 -15 206 494 0 205 207 0 17 52 0 206 205 147 50 75 174 0 171 -17 171
 0 208 81 107 50 205 169 0 144 +17 107 0 208 171 110 47 84 101 0 0 +15 208 85 0
 107 209 0 17 110 0 208 107 81 82 109 111 0 0 -17 81 0 208 110 171 79 144 142 0
 109 -17 109 0 108 113 103 79 110 111 0 115 +17 115 0 183 144 78 79 113 116 0 0
 -17 144 0 183 75 115 50 81 142 0 0 +17 75 0 183 189 144 73 52 174 0 156 +17 189
 0 183 184 75 65 156 154 0 201 -14 255 209 86 210 ?94 207 208 5 211 -0 0 207 94
 22 81 1 210 1460 212 209 213 0 0 214 215 14 94 90 214 ?198 209 87 5 216 -0 0 20
9 198 22 14 207 525 217 ?209 16 206 5 218 +0 0 219 209 22 50 211 92 0 209 220 22
1 0 +-.00504294478527608 .0209355828220859 .01 -1 -1101411730778924e-31 0 110141
1730778924e-31 -1 0 13 22 959 0 0 0 0 0 0 9 16 14 16 890 222 ?207 0 27 5 6 -0 0
 200 0 22 81 1 222 1463 212 16 223 0 217 224 225 14 200 674 224 ?219 191 226 5 2
27 -0 0 191 16 22 81 1 224 1464 212 200 228 0 222 229 230 14 219 992 229 ?114 20
0 231 5 232 -0 0 114 207 22 14 191 664 233 ?200 186 234 5 235 -0 0 186 200 22 15
 226 974 0 236 200 32 50 227 218 0 200 235 220 0 +-.00704294478527607 .020935582
8220859 -.063 -1 123908819712629e-30 0 -123908819712629e-30 -1 0 50 235 220 0 19
1 232 227 0 +-.01204294478527606 .0209355828220859 -.063 1 -1376764663473656e-31
 0 1376764663473656e-31 1 0 50 220 91 0 186 227 211 0 +-.01404294478527606 .0209
355828220859 .01 -385494105772624e-30 -1 0 1 -385494105772624e-30 0 14 186 679 2
37 ?191 106 238 5 220 -0 0 106 191 22 81 1 237 1467 212 186 239 0 233 240 241 14
 106 684 240 ?186 196 242 5 221 -0 0 196 186 22 15 238 1154 0 243 186 183 17 243
 0 238 243 243 0 244 120 0 0 -17 244 0 245 244 244 0 243 120 0 0 +16 120 1165 0
 ?244 117 246 122 0 0 1 16 246 1215 0 ?247 120 248 249 0 0 1 17 247 0 250 247 24
7 0 251 246 0 0 +16 248 1218 0 ?252 246 0 253 0 0 1 31 249 1238 0 246 0 253 0 +-
.0095 -.0380644171779141 .008 0 -1 0 0 0 -1 .0018 31 253 1237 0 248 249 121 0 +-
.0095 -.0420644171779141 .008 0 -1 0 0 0 -1 .0018 31 121 1185 0 117 253 122 0 +-
.0095 .0169355828220859 .008 385494105772624e-30 1 0 -1 385494105772624e-30 0 .0
018 17 252 0 254 252 252 0 255 248 0 0 +15 254 1225 0 252 256 0 17 255 0 242 255
 255 0 252 248 0 0 -15 242 1207 0 255 106 99 14 256 1221 257 ?258 259 260 5 261
 -0 0 258 259 22 81 1 257 1469 212 256 262 0 240 263 264 14 258 1226 263 ?0 256
 250 5 265 +0 0 0 256 22 14 259 1173 266 ?256 267 268 5 269 +0 0 256 267 22 15 2
60 1224 0 251 256 254 51 255 261 1234 0 256 265 269 0 +-.0095 -.0380644171779141
 .008 0 -1 0 .0018 0 0 -1 50 265 1236 0 258 0 261 0 +-.0095 -.0380644171779141 .
008 0 -1 0 0 0 -1 50 269 1183 0 259 261 270 0 +-.0095 .0169355828220859 .008 385
494105772624e-30 1 0 -1 385494105772624e-30 0 51 270 1181 0 267 269 271 0 +-.009
5 .0169355828220859 .008 385494105772624e-30 1 0 .0018 -1 385494105772624e-30 0
 14 267 1168 272 ?259 114 273 5 270 -0 0 259 114 22 50 271 1095 0 114 270 232 0
 +0 0 .015 0 0 1 1 0 0 14 114 1082 274 ?267 219 108 5 271 +0 0 267 219 22 51 232
 1010 0 219 271 235 0 +-.03004294478527605 -.01003641103271134 -.022835321423997
35 1 -123908819712629e-30 0 .0025 123908819712629e-30 1 0 81 1 274 1473 212 114
 275 0 272 276 277 80 255 1 212 278 279 9000 1 1 1 1 1 1 1 1 0 FFFFTFTFFFFFFF1 8
1 1 275 1413 280 114 0 274 281 282 283 81 1 272 1472 212 267 282 0 266 274 284 8
1 1 276 1474 212 196 285 0 274 286 287 82 255 1 277 491323598 14 196 410 276 ?10
6 204 194 5 288 -0 0 204 106 22 81 1 285 1407 280 196 0 276 289 290 291 81 1 286
 1475 212 204 289 0 276 292 293 82 1 287 1821180019 14 204 304 286 ?196 198 202
 5 294 -0 0 198 196 22 81 1 289 1406 280 204 0 286 295 285 296 81 1 292 1476 212
 198 295 0 286 0 297 82 1 293 1548812401 14 198 587 292 ?204 94 197 5 18 +0 0 94
 204 22 81 1 295 1405 280 198 0 292 298 289 299 82 1 297 -1778581385 80 1 280 0
 300 8001 0 0 0 0 3 5 0 0 0 FFFFTFTFFFFFFF2 81 1 298 1404 280 94 0 214 213 295 3
01 83 255 3 299 .792156862745098 .819607843137255 .933333333333333 81 1 214 1461
 212 94 298 0 210 217 302 81 1 213 1403 280 209 0 210 303 298 304 83 3 301 .7921
56862745098 .819607843137255 .933333333333333 81 1 303 1402 280 207 0 217 223 21
3 305 83 3 304 .792156862745098 .819607843137255 .933333333333333 81 1 217 1462
 212 207 303 0 214 222 306 81 1 223 1401 280 16 307 222 0 303 308 83 3 305 .7921
56862745098 .819607843137255 .933333333333333 81 2 307 1357 309 16 0 223 310 0 0
 311 83 3 308 .792156862745098 .819607843137255 .933333333333333 80 2 309 312 31
3 9000 0 0 0 0 3 6 0 0 0 FFTFTTTTFFFFFF9 1 81 2 310 1356 309 200 0 228 0 307 0 3
14 82 1 311 -1 81 1 228 1411 280 200 310 224 315 281 316 82 1 314 -1 81 1 315 14
10 280 191 0 233 239 228 317 81 1 281 1412 280 219 0 229 228 275 318 83 3 316 .7
92156862745098 .819607843137255 .933333333333333 81 1 229 1465 212 219 281 0 224
 233 319 83 3 318 .792156862745098 .819607843137255 .933333333333333 81 1 233 14
66 212 191 315 0 229 237 320 82 1 319 474611916 82 1 320 438763724 81 1 239 1409
 280 186 0 237 290 315 321 83 3 317 .792156862745098 .819607843137255 .933333333
333333 81 1 290 1408 280 106 0 240 285 239 322 83 3 321 .792156862745098 .819607
843137255 .933333333333333 81 1 240 1468 212 106 290 0 237 257 323 83 3 322 .792
156862745098 .819607843137255 .933333333333333 82 1 323 439091410 79 255 22 313
 ATTRIB_AUTOMATION_200382 1 306 -1985413003 82 1 302 439419086 79 15 300 SDL/TYS
A_COLOUR51 18 590 0 198 218 6 0 +-.01304294478527606 .0209355828220859 .001 0 -1
 0 .001 0 0 -1 51 218 528 0 207 288 18 0 +-.00604294478527608 .0209355828220859
 .001 -1101411730778924e-31 1 0 .001 -1 -1101411730778924e-31 0 51 288 463 0 196
 294 218 0 +-.01304294478527606 179570654880061e-32 -.001 1376764663473656e-31 1
 0 .001 -1 1376764663473656e-31 0 51 294 357 0 204 216 288 0 +-.0060429447852760
7 748774155932145e-33 -.001 -123908819712629e-30 -1 0 .001 1 -123908819712629e-3
0 0 50 216 94 0 94 221 294 0 +-.01404294478527606 .0209355828220859 .01 1 0 0 0
 0 -1 50 221 93 0 106 211 216 0 +-.01404294478527606 -.0420644171779141 .01 0 1
 0 0 0 1 83 3 296 .792156862745098 .819607843137255 .933333333333333 83 3 291 .7
92156862745098 .819607843137255 .933333333333333 81 1 282 1414 280 267 0 272 275
 324 325 81 1 266 1471 212 259 324 0 263 272 326 82 1 284 516882640 81 1 324 141
5 280 259 0 266 282 262 327 81 1 263 1470 212 258 328 0 257 266 329 82 1 326 514
916560 81 1 328 1417 280 258 0 263 262 0 330 82 1 329 531562706 81 1 262 1416 28
0 256 0 257 324 328 331 83 3 330 .792156862745098 .819607843137255 .933333333333
333 83 3 331 .792156862745098 .819607843137255 .933333333333333 83 3 327 .792156
862745098 .819607843137255 .933333333333333 83 3 325 .792156862745098 .819607843
137255 .933333333333333 83 3 283 .792156862745098 .819607843137255 .933333333333
333 79 14 279 SWEntUnchanged15 273 1171 0 332 267 245 17 332 0 273 332 332 0 119
 117 0 0 -15 245 1172 0 244 267 0 17 119 0 268 119 119 0 332 117 0 0 +15 268 117
5 0 119 259 0 17 251 0 260 251 251 0 247 246 0 0 -15 250 1228 0 247 258 0 82 1 2
64 533528786 82 1 241 438829264 17 236 0 226 236 236 0 128 126 0 0 -17 128 0 231
 128 128 0 236 126 0 0 +15 231 995 0 128 219 333 15 333 996 0 334 219 0 17 334 0
 333 334 334 0 131 129 0 0 -17 131 0 234 131 131 0 334 129 0 0 +15 234 980 0 131
 191 190 82 1 230 438632652 82 1 225 453443785 82 1 215 441123022 17 147 0 206 5
2 72 73 203 100 0 0 +19 17 937 0 1 0 9 5 S0 74 4 CI16 index_map_offset0 0 1 dCCZ
20 15 10 0 0 292 335 336 337 338 339 307 13 328 2 0 0 0 0 0 0 0 0 0 0 81 2 335 1
129 340 1 0 336 0 0 0 341 81 2 336 1136 342 1 335 337 0 0 0 343 81 2 337 1250 34
4 1 336 338 0 0 345 0 81 2 338 1352 346 1 337 339 0 0 0 347 81 2 339 1355 348 1
 338 13 0 0 0 0 81 1 13 1377 349 1 339 2 0 0 350 80 1 349 351 352 9000 0 0 0 0 3
 6 0 0 0 FFTTTTTTFTTFTT1 82 1 350 1 79 64 352 APICUSTUMTRACKINGIDENTIFIER_C9A5DB
DA-4E3F-4DE6-B940-06444EB62C9080 2 348 353 354 9000 0 0 0 0 3 5 0 0 0 FFTFFFFFFF
FFFF9 1 79 16 354 BODY_RECIPE_200180 2 346 355 356 9000 0 0 0 0 3 5 0 0 0 FFTFFF
FFFFFFFF9 1 82 1 347 1 79 24 356 BODY_IN_LIGHTWEIGHT_PERM80 2 344 357 358 8004 0
 0 0 0 3 5 0 0 0 FFTFFFFFFFFFFF2 3 83 1 345 1e3 79 16 358 SDL/TYSA_DENSITY80 2 3
42 359 360 9000 0 0 0 0 3 5 0 0 0 FFTFFFFFFFFFFF9 1 82 1 343 162 79 30 360 LAST_
BODY_MODIFYING_FEATURE_ID80 2 340 361 362 9000 0 0 0 0 3 5 0 0 0 FFTFFFFFFFFFFF9
 1 82 1 341 168 79 19 362 ENT_TIME_STAMP_200180 2 12 363 364 9000 0 0 0 0 3 5 0
 0 0 FFTFFFFFFFFFFF9 1 82 1 14 113 79 12 364 ATOM_ID_20011 0 
