**ABCDEFGHIJKLMNOPQRSTUVWXYZabcdefghijklmnopqrstuvwxyz**************************
**PARASOLID !"#$%&'()*+,-./:;<=>?@[\]^_`{|}~0123456789**************************
**PART1;
MC=AMD64;
MC_MODEL=Intel64 Family 6 Model 60 Stepping 3, GenuineIntel;
MC_ID=unknown;
OS=Windows_NT;
OS_RELEASE=unknown;
FRU=Parasolid Version 30.0, build 298, 12-15-2017;
APPL=SOLIDWORKS 2018-2018056;
SITE=;
USER=unknown;
FORMAT=text;
GUISE=transmit;
KEY=Poisson entier;
FILE=Poisson entier.x_t;
DATE=Mon Dec  9 16:37:03 2019;
**PART2;
SCH=SCH_3000298_30000;
USFLD_SIZE=0;
**PART3;
**END_OF_HEADER*****************************************************************
T51 : TRANSMIT FILE created by modeller version 300029823 SCH_3000298_30000_1300
6205 0 10 19 CCCCCCCI4 mesh1006 0 I8 polyline1008 0 CCCCCCCCCCZ1 5 2 3 0 0 0 0 0
 0 0 1e3 1e-8 0 0 0 1 0 1 4 81 255 2 2 5 5 1 0 0 0 0 0 0 70 11 CI9 list_type0 0
 1 uI10 notransmit0 0 1 lCCCDCCDI12 finger_index0 0 1 dI12 finger_block1012 0 CZ
3 0 4 T1 0 0 1 20 1 6 6 11 255 4 3 0 1 7 8 1 9 0 0 0 12 33 CCCCCCI4 mesh1006 0 I
8 polyline1008 0 CCCCCCCDI5 owner1040 0 CCCCCCI13 boundary_mesh1006 0 I17 bounda
ry_polyline1008 0 CCCA16 index_map_offset0 0 1 dA9 index_map82 0 A17 node_id_ind
ex_map82 0 A20 schema_embedding_map82 0 A5 child12 0 A14 lowest_node_id0 0 1 dZ7
 17 10 11 0 0 0 0 0 0 1e3 1e-8 4 12 0 1 0 2 1 13 0 14 15 0 0 16 0 17 0 0 0 0 0 0
 100 255 8 4 4 0 0 1 0 0 0 1 0 0 0 1 0 0 0 1 0 ?11 9 1 0 1 12 18 1 0 4 0 0 12 12
 130 19 20 0 0 0 0 0 0 1e3 1e-8 9 21 7 1 0 1 1 22 23 24 25 0 0 26 27 28 0 0 0 0
 0 0 100 18 2 9 0 0 1 0 0 0 1 0 0 0 1 0 0 0 1 0 ?81 1 19 130 29 12 30 0 0 0 0 70
 20 0 4 T12 0 0 4 20 1 31 31 13 255 22 56 0 12 0 32 0 0 33 0 67 255 23 53 0 32 3
4 0 0 +35 0 0 -1 .00585448855012154 30 255 24 55 0 27 36 0 0 +.3 -615e-6 .15 0 0
 -1 29 255 25 44 0 37 38 0 .3 615e-6 0 19 8 CCCCCCCA5 owner12 0 Z26 17 0 12 33 0
 39 V0 16 255 27 47 0 ?40 0 41 24 0 0 12 18 255 28 14 0 42 0 43 44 ?12 17 255 42
 0 45 46 46 28 47 48 0 49 +18 43 11 0 47 28 37 50 ?12 29 44 16 0 28 50 38 .3 615
e-6 .15 29 50 13 0 43 0 44 .3 -615e-6 .15 29 38 45 0 51 44 25 .3 -615e-6 0 18 51
 40 0 52 37 0 38 ?12 17 52 0 53 54 54 51 55 56 0 40 -18 37 39 0 55 43 51 25 ?12
 17 55 0 57 49 40 37 52 56 0 58 +15 255 57 48 0 55 59 0 17 49 0 57 47 55 28 58 4
1 0 60 -17 40 0 57 55 47 51 61 27 0 62 +16 56 30 0 ?55 63 64 65 0 0 12 17 58 0 6
6 62 60 37 49 41 0 54 +15 66 50 0 62 32 0 17 62 0 66 61 58 51 54 64 0 0 +17 60 0
 66 58 61 28 46 63 0 0 -16 41 46 0 ?58 27 48 36 0 0 12 17 54 0 53 52 52 37 62 64
 0 0 -15 53 29 0 54 67 0 16 64 34 0 ?62 56 0 68 0 0 12 134 255 68 43 0 64 69 65
 0 +70 71 31 255 69 9 0 48 35 68 0 +.2999598542959275 0 .15 0 0 1 -1 0 0 .000616
308914064589 31 65 42 0 56 68 36 0 +.2999598542959275 0 0 0 0 1 -1 0 0 .00061630
8914064589 136 255 70 3 97 3 95 6 FFF1 72 73 74 135 255 71 2 0 45 255 291 72 .3
 615e-6 0 .297904984083785 .00075175754308859 0 .292317834146917 .00111647310076
999 0 .2832391674855485 .001717548993116995 0 .2727638510733105 .002401734128833
945 0 .2622890097692355 .00309314837150869 0 .251814135815064 .00378406655140473
5 0 .241337843931188 .004468625299858875 0 .230862161265605 .00516145375899976 0
 .2203858382014565 .00584553816170969 0 .2099111544141375 .00653834924156426 0 .
1994358455532295 .00722265025326787 0 .188961161961777 .00791546436518573 0 .178
484838114123 .00859953663901671 0 .168010154067309 .00929234472619852 0 .1575348
470275065 .00997666983236351 0 .1470601564095102 .01066939053773888 0 .136583858
847943 .01135381235682976 0 .126108081002565 .01204538152297814 0 .1156289892044
612 .01273484757758416 0 .1065444138634882 .01331877176387272 0 .098151476206991
 .01375926166346622 0 .0911565623688358 .01407505354493492 0 .0834590911030426 .
01433267100844692 0 .0768097627687469 .01449426632643782 0 .071208103954924 .014
55304389632076 0 .0680570107705436 .01456484153549486 0 .0659559846118634 .01456
613614602908 0 .0635049428575731 .01454830766158958 0 .0589501852432484 .0145072
2740973552 0 .0526393729328738 .01434217802527626 0 .0459763950033585 .014041169
69115522 0 .04071427886623885 .01369427089634006 0 .03685314861223085 .013371585
8694841 0 .0336905280026766 .01306675633536468 0 .0305256864431676 .012713592882
65876 0 .0273574246256501 .012304603807145 0 .0238293477768756 .0117731450606674
6 0 .02029344904277045 .01115581081178768 0 .01675261349253385 .0104050388087684
2 0 .01391014568008668 .00969526837778904 0 .01141189872850098 .0089689426759393
2 0 .009247069544107 .00823912232844403 0 .0070471016636079 .00737156353291515 0
 .00520436825337569 .00646929823591286 0 .00370440686726622 .00556696021824286 0
 .002492406306362735 .00467176411817021 0 .000823776107687222 .00308438944362807
5 0 -.000563560510684523 792515529539501e-31 0 .000823776107687273 -.00308438944
362815 0 .00249240630636272 -.00467176411817019 0 .003704406867266225 -.00556696
021824287 0 .00520436825337569 -.00646929823591286 0 .00704710166360792 -.007371
56353291516 0 .00924706954410698 -.00823912232844402 0 .01141189872850096 -.0089
6894267593932 0 .01391014568008672 -.00969526837778906 0 .0167526134925338 -.010
4050388087684 0 .02029344904277045 -.01115581081178768 0 .02382934777687565 -.01
177314506066746 0 .02735742462565005 -.012304603807145 0 .0305256864431676 -.012
71359288265876 0 .03369052800267655 -.01306675633536466 0 .0368531486122309 -.01
33715858694841 0 .0407142788662388 -.01369427089634006 0 .0459763950033586 -.014
04116969115522 0 .0526393729328738 -.01434217802527628 0 .0589501852432483 -.014
50722740973552 0 .0635049428575732 -.01454830766158958 0 .0659559846118633 -.014
56613614602908 0 .0680570107705436 -.01456484153549486 0 .071208103954924 -.0145
5304389632076 0 .0768097627687469 -.0144942663264378 0 .0834590911030426 -.01433
267100844692 0 .0911565623688358 -.01407505354493492 0 .0981514762069911 -.01375
926166346622 0 .106544413863488 -.01331877176387272 0 .1156289892044612 -.012734
84757758416 0 .1261080810025648 -.01204538152297814 0 .1365838588479428 -.011353
81235682976 0 .1470601564095102 -.01066939053773888 0 .1575348470275065 -.009976
66983236352 0 .168010154067309 -.00929234472619851 0 .178484838114123 -.00859953
663901672 0 .1889611619617765 -.00791546436518573 0 .1994358455532295 -.00722265
025326786 0 .2099111544141375 -.00653834924156426 0 .2203858382014565 -.00584553
816170969 0 .230862161265605 -.00516145375899976 0 .241337843931188 -.0044686252
99858875 0 .2518141358150635 -.00378406655140474 0 .2622890097692355 -.003093148
37150869 0 .2727638510733105 -.00240173412883395 0 .2832391674855485 -.001717548
993116995 0 .292317834146917 -.001116473100769994 0 .297904984083785 -.000751757
54308859 0 .3 -615e-6 0 127 255 95 73 4 1 1 1 1 1 1 1 1 1 1 1 1 1 1 1 1 1 1 1 1
 1 1 1 1 1 1 1 1 1 1 1 1 1 1 1 1 1 1 1 1 1 1 1 1 1 1 1 1 1 1 1 1 1 1 1 1 1 1 1 1
 1 1 1 1 1 1 1 1 1 1 1 1 1 1 1 1 1 1 1 1 1 1 1 1 1 1 1 1 1 1 1 1 1 4 128 255 95
 74 0 .01033176672580918 .02755355191484145 .04477501437599325 .0619918890878921
 .0792136742769245 .0964351367380763 .1136569219271086 .1308783843882604 .148100
1695772928 .1653167214692635 .1825385066582955 .1997599691194475 .21698175430847
95 .23419830620045 .2514200913894825 .2686415538506345 .2858633390396665 .303084
8015008185 .320322147091687 .3306610967813635 .3444439053014235 .354779243630487
5 .368562091684667 .3771745590887265 .3823466935714615 .384069085539591 .3875139
25716762 .394408809862741 .406484297575228 .4185784380989155 .4272292644149465 .
4324341717486865 .4376452636393655 .4428645283400275 .4481047816677185 .45336492
7121588 .460421620890769 .465764878525566 .47117403778509 .474835155867093 .4785
65393973049 .482412614605373 .486466494475071 .488643966308192 .49102188077919 .
493857902158305 .5 .506142097841696 .50897811922081 .511356033691809 .5135335055
24929 .517587385394628 .521434606026952 .525164844132907 .52882596221491 .534235
121474435 .539578379109232 .546635072878412 .551895218332282 .557135471659973 .5
62354736360635 .567565828251314 .572770735585054 .581421561901085 .5935157024247
73 .60559119013726 .612486074283239 .61593091446041 .617653306428539 .6228254409
11274 .631437908315334 .645220756369513 .655556094698577 .669338903218637 .67967
7852908314 .696915198499182 .714136660960334 .731358446149366 .748579908610518 .
76580169379955 .783018245691521 .800240030880553 .817461493341705 .8346832785307
37 .851899830422708 .86912161561174 .886343078072892 .903564863261924 .920786325
723076 .938008110912108 .955224985624007 .972446448085159 .989668233274191 1 30
 36 54 0 41 65 24 0 +.3 615e-6 .15 0 0 -1 16 48 8 0 ?42 41 63 69 0 0 12 134 35 5
 0 63 0 69 75 +76 77 16 63 4 0 ?46 48 56 35 0 0 12 141 255 75 23 75 75 35 136 76
 3 97 3 95 6 FFF1 78 79 80 135 77 2 0 45 291 78 .3 615e-6 .15 .297904984083785 .
00075175754308859 .15 .292317834146917 .00111647310076999 .15 .2832391674855485
 .001717548993116995 .15 .2727638510733105 .002401734128833945 .15 .262289009769
2355 .00309314837150869 .15 .251814135815064 .003784066551404735 .15 .2413378439
31188 .004468625299858875 .15 .230862161265605 .00516145375899976 .15 .220385838
2014565 .00584553816170969 .15 .2099111544141375 .00653834924156426 .15 .1994358
455532295 .00722265025326787 .15 .188961161961777 .00791546436518573 .15 .178484
838114123 .00859953663901671 .15 .168010154067309 .00929234472619852 .15 .157534
8470275065 .00997666983236351 .15 .1470601564095102 .01066939053773888 .15 .1365
83858847943 .01135381235682976 .15 .126108081002565 .01204538152297814 .15 .1156
289892044612 .01273484757758416 .15 .1065444138634882 .01331877176387272 .15 .09
8151476206991 .01375926166346622 .15 .0911565623688358 .01407505354493492 .15 .0
834590911030426 .01433267100844692 .15 .0768097627687469 .01449426632643782 .15
 .071208103954924 .01455304389632076 .15 .0680570107705436 .01456484153549486 .1
5 .0659559846118634 .01456613614602908 .15 .0635049428575731 .01454830766158958
 .15 .0589501852432484 .01450722740973552 .15 .0526393729328738 .014342178025276
26 .15 .0459763950033585 .01404116969115522 .15 .04071427886623885 .013694270896
34006 .15 .03685314861223085 .0133715858694841 .15 .0336905280026766 .0130667563
3536468 .15 .0305256864431676 .01271359288265876 .15 .0273574246256501 .01230460
3807145 .15 .0238293477768756 .01177314506066746 .15 .02029344904277045 .0111558
1081178768 .15 .01675261349253385 .01040503880876842 .15 .01391014568008668 .009
69526837778904 .15 .01141189872850098 .00896894267593932 .15 .009247069544107 .0
0823912232844403 .15 .0070471016636079 .00737156353291515 .15 .00520436825337569
 .00646929823591286 .15 .00370440686726622 .00556696021824286 .15 .0024924063063
62735 .00467176411817021 .15 .000823776107687222 .003084389443628075 .15 -.00056
3560510684523 792515529539501e-31 .15 .000823776107687273 -.00308438944362815 .1
5 .00249240630636272 -.00467176411817019 .15 .003704406867266225 -.0055669602182
4287 .15 .00520436825337569 -.00646929823591286 .15 .00704710166360792 -.0073715
6353291516 .15 .00924706954410698 -.00823912232844402 .15 .01141189872850096 -.0
0896894267593932 .15 .01391014568008672 -.00969526837778906 .15 .016752613492533
8 -.0104050388087684 .15 .02029344904277045 -.01115581081178768 .15 .02382934777
687565 -.01177314506066746 .15 .02735742462565005 -.012304603807145 .15 .0305256
864431676 -.01271359288265876 .15 .03369052800267655 -.01306675633536466 .15 .03
68531486122309 -.0133715858694841 .15 .0407142788662388 -.01369427089634006 .15
 .0459763950033586 -.01404116969115522 .15 .0526393729328738 -.01434217802527628
 .15 .0589501852432483 -.01450722740973552 .15 .0635049428575732 -.0145483076615
8958 .15 .0659559846118633 -.01456613614602908 .15 .0680570107705436 -.014564841
53549486 .15 .071208103954924 -.01455304389632076 .15 .0768097627687469 -.014494
2663264378 .15 .0834590911030426 -.01433267100844692 .15 .0911565623688358 -.014
07505354493492 .15 .0981514762069911 -.01375926166346622 .15 .106544413863488 -.
01331877176387272 .15 .1156289892044612 -.01273484757758416 .15 .126108081002564
8 -.01204538152297814 .15 .1365838588479428 -.01135381235682976 .15 .14706015640
95102 -.01066939053773888 .15 .1575348470275065 -.00997666983236352 .15 .1680101
54067309 -.00929234472619851 .15 .178484838114123 -.00859953663901672 .15 .18896
11619617765 -.00791546436518573 .15 .1994358455532295 -.00722265025326786 .15 .2
099111544141375 -.00653834924156426 .15 .2203858382014565 -.00584553816170969 .1
5 .230862161265605 -.00516145375899976 .15 .241337843931188 -.004468625299858875
 .15 .2518141358150635 -.00378406655140474 .15 .2622890097692355 -.0030931483715
0869 .15 .2727638510733105 -.00240173412883395 .15 .2832391674855485 -.001717548
993116995 .15 .292317834146917 -.001116473100769994 .15 .297904984083785 -.00075
175754308859 .15 .3 -615e-6 .15 127 95 79 4 1 1 1 1 1 1 1 1 1 1 1 1 1 1 1 1 1 1
 1 1 1 1 1 1 1 1 1 1 1 1 1 1 1 1 1 1 1 1 1 1 1 1 1 1 1 1 1 1 1 1 1 1 1 1 1 1 1 1
 1 1 1 1 1 1 1 1 1 1 1 1 1 1 1 1 1 1 1 1 1 1 1 1 1 1 1 1 1 1 1 1 1 1 1 4 128 95
 80 0 .01033176672580918 .02755355191484145 .04477501437599325 .0619918890878921
 .0792136742769245 .0964351367380763 .1136569219271086 .1308783843882604 .148100
1695772928 .1653167214692635 .1825385066582955 .1997599691194475 .21698175430847
95 .23419830620045 .2514200913894825 .2686415538506345 .2858633390396665 .303084
8015008185 .320322147091687 .3306610967813635 .3444439053014235 .354779243630487
5 .368562091684667 .3771745590887265 .3823466935714615 .384069085539591 .3875139
25716762 .394408809862741 .406484297575228 .4185784380989155 .4272292644149465 .
4324341717486865 .4376452636393655 .4428645283400275 .4481047816677185 .45336492
7121588 .460421620890769 .465764878525566 .47117403778509 .474835155867093 .4785
65393973049 .482412614605373 .486466494475071 .488643966308192 .49102188077919 .
493857902158305 .5 .506142097841696 .50897811922081 .511356033691809 .5135335055
24929 .517587385394628 .521434606026952 .525164844132907 .52882596221491 .534235
121474435 .539578379109232 .546635072878412 .551895218332282 .557135471659973 .5
62354736360635 .567565828251314 .572770735585054 .581421561901085 .5935157024247
73 .60559119013726 .612486074283239 .61593091446041 .617653306428539 .6228254409
11274 .631437908315334 .645220756369513 .655556094698577 .669338903218637 .67967
7852908314 .696915198499182 .714136660960334 .731358446149366 .748579908610518 .
76580169379955 .783018245691521 .800240030880553 .817461493341705 .8346832785307
37 .851899830422708 .86912161561174 .886343078072892 .903564863261924 .920786325
723076 .938008110912108 .955224985624007 .972446448085159 .989668233274191 1 17
 46 0 45 42 42 43 60 63 0 61 +15 45 3 0 46 81 0 17 61 0 66 60 62 43 40 27 0 0 -1
4 255 81 1 82 ?67 59 45 22 83 +0 0 67 59 39 81 1 82 126 84 81 85 0 0 86 87 14 67
 28 86 ?0 81 53 22 88 -0 0 0 81 39 14 59 49 89 ?81 32 57 22 34 -0 0 81 32 39 50
 255 83 2 0 81 0 88 0 +271050543150678e-34 203901631355602e-30 .15 0 0 1 1 0 0 1
3 39 18 0 0 0 0 0 0 26 32 14 32 51 90 ?59 0 66 22 23 -0 0 59 0 39 81 1 90 129 84
 32 91 0 89 0 92 80 255 1 84 93 94 9000 1 1 1 1 1 1 1 1 0 FFFFTFTFFFFFFF1 81 1 9
1 112 95 32 0 90 0 96 97 81 1 89 128 84 59 96 0 86 90 98 82 255 1 92 583401577 8
1 1 96 113 95 59 0 89 91 85 99 81 1 86 127 84 67 100 0 82 89 101 82 1 98 5831394
33 81 1 100 115 95 67 0 86 85 0 102 82 1 101 582615145 80 1 95 0 103 8001 0 0 0
 0 3 5 0 0 0 FFFFTFTFFFFFFF2 81 1 85 114 95 81 0 82 96 100 104 83 255 3 102 .792
156862745098 .819607843137255 .933333333333333 83 3 104 .792156862745098 .819607
843137255 .933333333333333 79 255 15 103 SDL/TYSA_COLOUR83 3 99 .792156862745098
 .819607843137255 .933333333333333 83 3 97 .792156862745098 .819607843137255 .93
3333333333333 79 14 94 SWEntUnchanged50 88 41 0 67 83 34 0 +271050543150678e-34
 203901631355602e-30 0 0 0 1 1 0 0 51 255 34 52 0 59 88 23 0 -.2999598542959275
 0 .15 0 0 -1 .000616308914064589 -1 0 0 82 1 87 579207273 17 47 0 57 40 49 43 4
2 48 0 46 -19 33 57 0 12 0 26 22 S0 74 4 CI16 index_map_offset0 0 1 dCCZ20 31 4
 0 0 90 30 100 19 0 0 0 0 0 0 0 0 0 0 0 0 0 0 0 0 81 2 30 90 105 12 0 19 0 0 106
 0 80 2 105 107 108 8004 0 0 0 0 3 5 0 0 0 FFTFFFFFFFFFFF2 3 83 1 106 1020 79 16
 108 SDL/TYSA_DENSITY80 1 29 109 110 8017 0 0 0 0 0 0 0 0 0 TTTTTTTTTTTTTF3 79 1
3 110 SDL/TYSA_NAME81 1 10 17 29 7 0 0 0 0 0 70 11 0 4 T7 0 0 1 20 1 111 111 13
 13 3 0 7 0 0 112 0 16 0 134 14 7 0 112 0 0 0 +113 114 29 15 8 0 17 115 0 .3 -61
5e-6 0 19 16 1 0 7 0 0 13 V0 18 17 5 0 116 0 117 15 ?7 17 116 0 0 0 0 17 118 112
 0 0 +18 117 2 0 118 17 0 115 ?7 17 118 0 0 0 0 117 116 112 0 0 -29 115 4 0 117
 0 15 .3 615e-6 0 16 112 6 0 ?116 0 0 14 0 0 13 136 113 3 97 3 95 6 FFF1 119 120
 121 135 114 2 0 45 291 119 .3 615e-6 0 .297904984083785 .00075175754308859 0 .2
92317834146917 .00111647310076999 0 .2832391674855485 .001717548993116995 0 .272
7638510733105 .002401734128833945 0 .2622890097692355 .00309314837150869 0 .2518
14135815064 .003784066551404735 0 .241337843931188 .004468625299858875 0 .230862
161265605 .00516145375899976 0 .2203858382014565 .00584553816170969 0 .209911154
4141375 .00653834924156426 0 .1994358455532295 .00722265025326787 0 .18896116196
1777 .00791546436518573 0 .178484838114123 .00859953663901671 0 .168010154067309
 .00929234472619852 0 .1575348470275065 .00997666983236351 0 .1470601564095102 .
01066939053773888 0 .136583858847943 .01135381235682976 0 .126108081002565 .0120
4538152297814 0 .1156289892044612 .01273484757758416 0 .1065444138634882 .013318
77176387272 0 .098151476206991 .01375926166346622 0 .0911565623688358 .014075053
54493492 0 .0834590911030426 .01433267100844692 0 .0768097627687469 .01449426632
643782 0 .071208103954924 .01455304389632076 0 .0680570107705436 .01456484153549
486 0 .0659559846118634 .01456613614602908 0 .0635049428575731 .0145483076615895
8 0 .0589501852432484 .01450722740973552 0 .0526393729328738 .01434217802527626
 0 .0459763950033585 .01404116969115522 0 .04071427886623885 .01369427089634006
 0 .03685314861223085 .0133715858694841 0 .0336905280026766 .01306675633536468 0
 .0305256864431676 .01271359288265876 0 .0273574246256501 .012304603807145 0 .02
38293477768756 .01177314506066746 0 .02029344904277045 .01115581081178768 0 .016
75261349253385 .01040503880876842 0 .01391014568008668 .00969526837778904 0 .011
41189872850098 .00896894267593932 0 .009247069544107 .00823912232844403 0 .00704
71016636079 .00737156353291515 0 .00520436825337569 .00646929823591286 0 .003704
40686726622 .00556696021824286 0 .002492406306362735 .00467176411817021 0 .00082
3776107687222 .003084389443628075 0 -.000563560510684523 792515529539501e-31 0 .
000823776107687273 -.00308438944362815 0 .00249240630636272 -.00467176411817019
 0 .003704406867266225 -.00556696021824287 0 .00520436825337569 -.00646929823591
286 0 .00704710166360792 -.00737156353291516 0 .00924706954410698 -.008239122328
44402 0 .01141189872850096 -.00896894267593932 0 .01391014568008672 -.0096952683
7778906 0 .0167526134925338 -.0104050388087684 0 .02029344904277045 -.0111558108
1178768 0 .02382934777687565 -.01177314506066746 0 .02735742462565005 -.01230460
3807145 0 .0305256864431676 -.01271359288265876 0 .03369052800267655 -.013066756
33536466 0 .0368531486122309 -.0133715858694841 0 .0407142788662388 -.0136942708
9634006 0 .0459763950033586 -.01404116969115522 0 .0526393729328738 -.0143421780
2527628 0 .0589501852432483 -.01450722740973552 0 .0635049428575732 -.0145483076
6158958 0 .0659559846118633 -.01456613614602908 0 .0680570107705436 -.0145648415
3549486 0 .071208103954924 -.01455304389632076 0 .0768097627687469 -.01449426632
64378 0 .0834590911030426 -.01433267100844692 0 .0911565623688358 -.014075053544
93492 0 .0981514762069911 -.01375926166346622 0 .106544413863488 -.0133187717638
7272 0 .1156289892044612 -.01273484757758416 0 .1261080810025648 -.0120453815229
7814 0 .1365838588479428 -.01135381235682976 0 .1470601564095102 -.0106693905377
3888 0 .1575348470275065 -.00997666983236352 0 .168010154067309 -.00929234472619
851 0 .178484838114123 -.00859953663901672 0 .1889611619617765 -.007915464365185
73 0 .1994358455532295 -.00722265025326786 0 .2099111544141375 -.006538349241564
26 0 .2203858382014565 -.00584553816170969 0 .230862161265605 -.0051614537589997
6 0 .241337843931188 -.004468625299858875 0 .2518141358150635 -.0037840665514047
4 0 .2622890097692355 -.00309314837150869 0 .2727638510733105 -.0024017341288339
5 0 .2832391674855485 -.001717548993116995 0 .292317834146917 -.0011164731007699
94 0 .297904984083785 -.00075175754308859 0 .3 -615e-6 0 127 95 120 4 1 1 1 1 1
 1 1 1 1 1 1 1 1 1 1 1 1 1 1 1 1 1 1 1 1 1 1 1 1 1 1 1 1 1 1 1 1 1 1 1 1 1 1 1 1
 1 1 1 1 1 1 1 1 1 1 1 1 1 1 1 1 1 1 1 1 1 1 1 1 1 1 1 1 1 1 1 1 1 1 1 1 1 1 1 1
 1 1 1 1 1 1 1 1 4 128 95 121 0 .01033176672580918 .02755355191484145 .044775014
37599325 .0619918890878921 .0792136742769245 .0964351367380763 .1136569219271086
 .1308783843882604 .1481001695772928 .1653167214692635 .1825385066582955 .199759
9691194475 .2169817543084795 .23419830620045 .2514200913894825 .2686415538506345
 .2858633390396665 .3030848015008185 .320322147091687 .3306610967813635 .3444439
053014235 .3547792436304875 .368562091684667 .3771745590887265 .3823466935714615
 .384069085539591 .387513925716762 .394408809862741 .406484297575228 .4185784380
989155 .4272292644149465 .4324341717486865 .4376452636393655 .4428645283400275 .
4481047816677185 .453364927121588 .460421620890769 .465764878525566 .47117403778
509 .474835155867093 .478565393973049 .482412614605373 .486466494475071 .4886439
66308192 .49102188077919 .493857902158305 .5 .506142097841696 .50897811922081 .5
11356033691809 .513533505524929 .517587385394628 .521434606026952 .5251648441329
07 .52882596221491 .534235121474435 .539578379109232 .546635072878412 .551895218
332282 .557135471659973 .562354736360635 .567565828251314 .572770735585054 .5814
21561901085 .593515702424773 .60559119013726 .612486074283239 .61593091446041 .6
17653306428539 .622825440911274 .631437908315334 .645220756369513 .6555560946985
77 .669338903218637 .679677852908314 .696915198499182 .714136660960334 .73135844
6149366 .748579908610518 .76580169379955 .783018245691521 .800240030880553 .8174
61493341705 .834683278530737 .851899830422708 .86912161561174 .886343078072892 .
903564863261924 .920786325723076 .938008110912108 .955224985624007 .972446448085
159 .989668233274191 1 74 20 111 1 0 0 10 0 0 0 0 0 0 0 0 0 0 0 0 0 0 0 0 0 0 0
 74 20 6 1 0 0 2 0 0 0 0 0 0 0 0 0 0 0 0 0 0 0 0 0 0 0 80 2 5 122 123 9000 0 0 0
 0 3 5 0 0 0 TFFFFFFFFFFFFF9 1 79 18 123 MULTI_BODY_ID_20011 0 
