**ABCDEFGHIJKLMNOPQRSTUVWXYZabcdefghijklmnopqrstuvwxyz**************************
**PARASOLID !"#$%&'()*+,-./:;<=>?@[\]^_`{|}~0123456789**************************
**PART1;
MC=AMD64;
MC_MODEL=Intel64 Family 6 Model 60 Stepping 3, GenuineIntel;
MC_ID=unknown;
OS=Windows_NT;
OS_RELEASE=unknown;
FRU=Parasolid Version 30.0, build 298, 12-15-2017;
APPL=SOLIDWORKS 2018-2018056;
SITE=;
USER=unknown;
FORMAT=text;
GUISE=transmit;
KEY=Tête;
FILE=Tête.x_t;
DATE=Mon Dec  9 16:32:00 2019;
**PART2;
SCH=SCH_3000298_30000;
USFLD_SIZE=0;
**PART3;
**END_OF_HEADER*****************************************************************
T51 : TRANSMIT FILE created by modeller version 300029823 SCH_3000298_30000_1300
6205 0 10 19 CCCCCCCI4 mesh1006 0 I8 polyline1008 0 CCCCCCCCCCZ1 5 2 3 0 0 0 0 0
 0 0 1e3 1e-8 0 0 0 1 0 1 4 81 255 2 2 5 5 1 0 0 0 0 0 0 70 11 CI9 list_type0 0
 1 uI10 notransmit0 0 1 lCCCDCCDI12 finger_index0 0 1 dI12 finger_block1012 0 CZ
3 0 4 T1 0 0 1 20 1 6 6 11 255 4 3 0 1 7 8 1 9 0 0 0 12 33 CCCCCCI4 mesh1006 0 I
8 polyline1008 0 CCCCCCCDI5 owner1040 0 CCCCCCI13 boundary_mesh1006 0 I17 bounda
ry_polyline1008 0 CCCA16 index_map_offset0 0 1 dA9 index_map82 0 A17 node_id_ind
ex_map82 0 A20 schema_embedding_map82 0 A5 child12 0 A14 lowest_node_id0 0 1 dZ7
 20 10 11 0 0 0 0 0 0 1e3 1e-8 4 12 0 1 0 2 1 13 0 14 15 0 0 16 0 17 0 0 0 0 0 0
 100 255 8 4 4 0 0 1 0 0 0 1 0 0 0 1 0 0 0 1 0 ?11 9 1 0 1 12 18 1 0 4 0 0 12 12
 367 19 20 0 0 0 0 0 0 1e3 1e-8 9 21 7 1 0 1 1 22 23 24 25 0 0 26 27 28 0 0 0 0
 0 0 100 18 2 9 0 0 1 0 0 0 1 0 0 0 1 0 0 0 1 0 ?81 1 19 367 29 12 30 0 0 0 0 70
 20 0 4 T12 0 0 4 20 1 31 31 13 255 22 311 0 12 0 32 0 0 33 0 67 255 23 53 0 34
 35 0 0 +36 0 0 -1 .00585448855012154 30 255 24 136 0 27 37 0 0 +.05602209130244
89 203901631355602e-30 0 0 1 0 29 255 25 124 0 28 38 0 .0560220913070261 -.01442
437093201854 0 19 8 CCCCCCCA5 owner12 0 Z26 313 0 12 33 0 39 V0 16 255 27 134 0
 ?40 0 41 24 0 0 12 18 255 28 122 0 42 0 43 25 ?12 17 255 42 0 44 40 45 28 46 47
 0 48 +18 43 221 0 49 28 50 38 ?12 17 49 0 44 45 40 43 51 52 0 53 +18 50 215 0 4
5 43 54 55 ?12 29 38 288 0 43 55 25 .0560220913024489 .01442437093189664 .15 29
 55 289 0 50 56 38 .0560220913024489 -.01442437093189664 .15 29 56 290 0 54 0 55
 .0560220913024489 .01442437093201854 0 18 54 222 0 40 50 0 56 ?12 17 40 0 44 49
 42 54 48 27 0 51 +15 255 44 243 0 42 57 0 17 48 0 58 59 59 28 40 27 0 60 -17 51
 0 61 60 62 54 49 52 0 59 -15 61 178 0 51 34 0 17 60 0 61 46 51 28 59 63 0 0 +17
 62 0 61 51 46 43 64 41 0 0 -16 52 189 0 ?49 65 47 66 0 0 12 17 59 0 58 48 48 54
 60 63 0 0 -15 58 135 0 48 67 0 16 63 120 0 ?60 41 65 37 0 0 12 16 41 144 0 ?64
 27 63 36 0 0 12 16 65 195 0 ?53 63 52 68 0 0 12 134 255 37 43 0 63 36 24 0 +69
 70 134 36 5 0 41 68 37 71 +72 73 136 255 69 3 97 3 95 6 FFF1 74 75 76 135 255 7
0 2 0 45 255 291 74 .3 615e-6 0 .297904984083785 .00075175754308859 0 .292317834
146917 .00111647310076999 0 .2832391674855485 .001717548993116995 0 .27276385107
33105 .002401734128833945 0 .2622890097692355 .00309314837150869 0 .251814135815
064 .003784066551404735 0 .241337843931188 .004468625299858875 0 .23086216126560
5 .00516145375899976 0 .2203858382014565 .00584553816170969 0 .2099111544141375
 .00653834924156426 0 .1994358455532295 .00722265025326787 0 .188961161961777 .0
0791546436518573 0 .178484838114123 .00859953663901671 0 .168010154067309 .00929
234472619852 0 .1575348470275065 .00997666983236351 0 .1470601564095102 .0106693
9053773888 0 .136583858847943 .01135381235682976 0 .126108081002565 .01204538152
297814 0 .1156289892044612 .01273484757758416 0 .1065444138634882 .0133187717638
7272 0 .098151476206991 .01375926166346622 0 .0911565623688358 .0140750535449349
2 0 .0834590911030426 .01433267100844692 0 .0768097627687469 .01449426632643782
 0 .071208103954924 .01455304389632076 0 .0680570107705436 .01456484153549486 0
 .0659559846118634 .01456613614602908 0 .0635049428575731 .01454830766158958 0 .
0589501852432484 .01450722740973552 0 .0526393729328738 .01434217802527626 0 .04
59763950033585 .01404116969115522 0 .04071427886623885 .01369427089634006 0 .036
85314861223085 .0133715858694841 0 .0336905280026766 .01306675633536468 0 .03052
56864431676 .01271359288265876 0 .0273574246256501 .012304603807145 0 .023829347
7768756 .01177314506066746 0 .02029344904277045 .01115581081178768 0 .0167526134
9253385 .01040503880876842 0 .01391014568008668 .00969526837778904 0 .0114118987
2850098 .00896894267593932 0 .009247069544107 .00823912232844403 0 .007047101663
6079 .00737156353291515 0 .00520436825337569 .00646929823591286 0 .0037044068672
6622 .00556696021824286 0 .002492406306362735 .00467176411817021 0 .000823776107
687222 .003084389443628075 0 -.000563560510684523 792515529539501e-31 0 .0008237
76107687273 -.00308438944362815 0 .00249240630636272 -.00467176411817019 0 .0037
04406867266225 -.00556696021824287 0 .00520436825337569 -.00646929823591286 0 .0
0704710166360792 -.00737156353291516 0 .00924706954410698 -.00823912232844402 0
 .01141189872850096 -.00896894267593932 0 .01391014568008672 -.00969526837778906
 0 .0167526134925338 -.0104050388087684 0 .02029344904277045 -.01115581081178768
 0 .02382934777687565 -.01177314506066746 0 .02735742462565005 -.012304603807145
 0 .0305256864431676 -.01271359288265876 0 .03369052800267655 -.0130667563353646
6 0 .0368531486122309 -.0133715858694841 0 .0407142788662388 -.01369427089634006
 0 .0459763950033586 -.01404116969115522 0 .0526393729328738 -.01434217802527628
 0 .0589501852432483 -.01450722740973552 0 .0635049428575732 -.01454830766158958
 0 .0659559846118633 -.01456613614602908 0 .0680570107705436 -.01456484153549486
 0 .071208103954924 -.01455304389632076 0 .0768097627687469 -.0144942663264378 0
 .0834590911030426 -.01433267100844692 0 .0911565623688358 -.01407505354493492 0
 .0981514762069911 -.01375926166346622 0 .106544413863488 -.01331877176387272 0
 .1156289892044612 -.01273484757758416 0 .1261080810025648 -.01204538152297814 0
 .1365838588479428 -.01135381235682976 0 .1470601564095102 -.01066939053773888 0
 .1575348470275065 -.00997666983236352 0 .168010154067309 -.00929234472619851 0
 .178484838114123 -.00859953663901672 0 .1889611619617765 -.00791546436518573 0
 .1994358455532295 -.00722265025326786 0 .2099111544141375 -.00653834924156426 0
 .2203858382014565 -.00584553816170969 0 .230862161265605 -.00516145375899976 0
 .241337843931188 -.004468625299858875 0 .2518141358150635 -.00378406655140474 0
 .2622890097692355 -.00309314837150869 0 .2727638510733105 -.00240173412883395 0
 .2832391674855485 -.001717548993116995 0 .292317834146917 -.001116473100769994
 0 .297904984083785 -.00075175754308859 0 .3 -615e-6 0 127 255 95 75 4 1 1 1 1 1
 1 1 1 1 1 1 1 1 1 1 1 1 1 1 1 1 1 1 1 1 1 1 1 1 1 1 1 1 1 1 1 1 1 1 1 1 1 1 1 1
 1 1 1 1 1 1 1 1 1 1 1 1 1 1 1 1 1 1 1 1 1 1 1 1 1 1 1 1 1 1 1 1 1 1 1 1 1 1 1 1
 1 1 1 1 1 1 1 1 4 128 255 95 76 0 .01033176672580918 .02755355191484145 .044775
01437599325 .0619918890878921 .0792136742769245 .0964351367380763 .1136569219271
086 .1308783843882604 .1481001695772928 .1653167214692635 .1825385066582955 .199
7599691194475 .2169817543084795 .23419830620045 .2514200913894825 .2686415538506
345 .2858633390396665 .3030848015008185 .320322147091687 .3306610967813635 .3444
439053014235 .3547792436304875 .368562091684667 .3771745590887265 .3823466935714
615 .384069085539591 .387513925716762 .394408809862741 .406484297575228 .4185784
380989155 .4272292644149465 .4324341717486865 .4376452636393655 .442864528340027
5 .4481047816677185 .453364927121588 .460421620890769 .465764878525566 .47117403
778509 .474835155867093 .478565393973049 .482412614605373 .486466494475071 .4886
43966308192 .49102188077919 .493857902158305 .5 .506142097841696 .50897811922081
 .511356033691809 .513533505524929 .517587385394628 .521434606026952 .5251648441
32907 .52882596221491 .534235121474435 .539578379109232 .546635072878412 .551895
218332282 .557135471659973 .562354736360635 .567565828251314 .572770735585054 .5
81421561901085 .593515702424773 .60559119013726 .612486074283239 .61593091446041
 .617653306428539 .622825440911274 .631437908315334 .645220756369513 .6555560946
98577 .669338903218637 .679677852908314 .696915198499182 .714136660960334 .73135
8446149366 .748579908610518 .76580169379955 .783018245691521 .800240030880553 .8
17461493341705 .834683278530737 .851899830422708 .86912161561174 .88634307807289
2 .903564863261924 .920786325723076 .938008110912108 .955224985624007 .972446448
085159 .989668233274191 1 30 68 270 0 65 66 36 0 +.0560220913024489 203901631355
602e-30 .15 0 1 0 141 255 71 23 71 71 36 136 72 3 97 3 95 6 FFF1 77 78 79 135 73
 2 0 45 291 77 .3 615e-6 .15 .297904984083785 .00075175754308859 .15 .2923178341
46917 .00111647310076999 .15 .2832391674855485 .001717548993116995 .15 .27276385
10733105 .002401734128833945 .15 .2622890097692355 .00309314837150869 .15 .25181
4135815064 .003784066551404735 .15 .241337843931188 .004468625299858875 .15 .230
862161265605 .00516145375899976 .15 .2203858382014565 .00584553816170969 .15 .20
99111544141375 .00653834924156426 .15 .1994358455532295 .00722265025326787 .15 .
188961161961777 .00791546436518573 .15 .178484838114123 .00859953663901671 .15 .
168010154067309 .00929234472619852 .15 .1575348470275065 .00997666983236351 .15
 .1470601564095102 .01066939053773888 .15 .136583858847943 .01135381235682976 .1
5 .126108081002565 .01204538152297814 .15 .1156289892044612 .01273484757758416 .
15 .1065444138634882 .01331877176387272 .15 .098151476206991 .01375926166346622
 .15 .0911565623688358 .01407505354493492 .15 .0834590911030426 .014332671008446
92 .15 .0768097627687469 .01449426632643782 .15 .071208103954924 .01455304389632
076 .15 .0680570107705436 .01456484153549486 .15 .0659559846118634 .014566136146
02908 .15 .0635049428575731 .01454830766158958 .15 .0589501852432484 .0145072274
0973552 .15 .0526393729328738 .01434217802527626 .15 .0459763950033585 .01404116
969115522 .15 .04071427886623885 .01369427089634006 .15 .03685314861223085 .0133
715858694841 .15 .0336905280026766 .01306675633536468 .15 .0305256864431676 .012
71359288265876 .15 .0273574246256501 .012304603807145 .15 .0238293477768756 .011
77314506066746 .15 .02029344904277045 .01115581081178768 .15 .01675261349253385
 .01040503880876842 .15 .01391014568008668 .00969526837778904 .15 .0114118987285
0098 .00896894267593932 .15 .009247069544107 .00823912232844403 .15 .00704710166
36079 .00737156353291515 .15 .00520436825337569 .00646929823591286 .15 .00370440
686726622 .00556696021824286 .15 .002492406306362735 .00467176411817021 .15 .000
823776107687222 .003084389443628075 .15 -.000563560510684523 792515529539501e-31
 .15 .000823776107687273 -.00308438944362815 .15 .00249240630636272 -.0046717641
1817019 .15 .003704406867266225 -.00556696021824287 .15 .00520436825337569 -.006
46929823591286 .15 .00704710166360792 -.00737156353291516 .15 .00924706954410698
 -.00823912232844402 .15 .01141189872850096 -.00896894267593932 .15 .01391014568
008672 -.00969526837778906 .15 .0167526134925338 -.0104050388087684 .15 .0202934
4904277045 -.01115581081178768 .15 .02382934777687565 -.01177314506066746 .15 .0
2735742462565005 -.012304603807145 .15 .0305256864431676 -.01271359288265876 .15
 .03369052800267655 -.01306675633536466 .15 .0368531486122309 -.0133715858694841
 .15 .0407142788662388 -.01369427089634006 .15 .0459763950033586 -.0140411696911
5522 .15 .0526393729328738 -.01434217802527628 .15 .0589501852432483 -.014507227
40973552 .15 .0635049428575732 -.01454830766158958 .15 .0659559846118633 -.01456
613614602908 .15 .0680570107705436 -.01456484153549486 .15 .071208103954924 -.01
455304389632076 .15 .0768097627687469 -.0144942663264378 .15 .0834590911030426 -
.01433267100844692 .15 .0911565623688358 -.01407505354493492 .15 .09815147620699
11 -.01375926166346622 .15 .106544413863488 -.01331877176387272 .15 .11562898920
44612 -.01273484757758416 .15 .1261080810025648 -.01204538152297814 .15 .1365838
588479428 -.01135381235682976 .15 .1470601564095102 -.01066939053773888 .15 .157
5348470275065 -.00997666983236352 .15 .168010154067309 -.00929234472619851 .15 .
178484838114123 -.00859953663901672 .15 .1889611619617765 -.00791546436518573 .1
5 .1994358455532295 -.00722265025326786 .15 .2099111544141375 -.0065383492415642
6 .15 .2203858382014565 -.00584553816170969 .15 .230862161265605 -.0051614537589
9976 .15 .241337843931188 -.004468625299858875 .15 .2518141358150635 -.003784066
55140474 .15 .2622890097692355 -.00309314837150869 .15 .2727638510733105 -.00240
173412883395 .15 .2832391674855485 -.001717548993116995 .15 .292317834146917 -.0
01116473100769994 .15 .297904984083785 -.00075175754308859 .15 .3 -615e-6 .15 12
7 95 78 4 1 1 1 1 1 1 1 1 1 1 1 1 1 1 1 1 1 1 1 1 1 1 1 1 1 1 1 1 1 1 1 1 1 1 1
 1 1 1 1 1 1 1 1 1 1 1 1 1 1 1 1 1 1 1 1 1 1 1 1 1 1 1 1 1 1 1 1 1 1 1 1 1 1 1 1
 1 1 1 1 1 1 1 1 1 1 1 1 1 1 1 1 1 1 4 128 95 79 0 .01033176672580918 .027553551
91484145 .04477501437599325 .0619918890878921 .0792136742769245 .096435136738076
3 .1136569219271086 .1308783843882604 .1481001695772928 .1653167214692635 .18253
85066582955 .1997599691194475 .2169817543084795 .23419830620045 .251420091389482
5 .2686415538506345 .2858633390396665 .3030848015008185 .320322147091687 .330661
0967813635 .3444439053014235 .3547792436304875 .368562091684667 .377174559088726
5 .3823466935714615 .384069085539591 .387513925716762 .394408809862741 .40648429
7575228 .4185784380989155 .4272292644149465 .4324341717486865 .4376452636393655
 .4428645283400275 .4481047816677185 .453364927121588 .460421620890769 .46576487
8525566 .47117403778509 .474835155867093 .478565393973049 .482412614605373 .4864
66494475071 .488643966308192 .49102188077919 .493857902158305 .5 .50614209784169
6 .50897811922081 .511356033691809 .513533505524929 .517587385394628 .5214346060
26952 .525164844132907 .52882596221491 .534235121474435 .539578379109232 .546635
072878412 .551895218332282 .557135471659973 .562354736360635 .567565828251314 .5
72770735585054 .581421561901085 .593515702424773 .60559119013726 .61248607428323
9 .61593091446041 .617653306428539 .622825440911274 .631437908315334 .6452207563
69513 .655556094698577 .669338903218637 .679677852908314 .696915198499182 .71413
6660960334 .731358446149366 .748579908610518 .76580169379955 .783018245691521 .8
00240030880553 .817461493341705 .834683278530737 .851899830422708 .8691216156117
4 .886343078072892 .903564863261924 .920786325723076 .938008110912108 .955224985
624007 .972446448085159 .989668233274191 1 30 66 271 0 52 80 68 0 -.056022091302
4489 .01442437093189664 .15 0 0 -1 30 80 272 0 47 0 66 0 +.0560220913024489 -.01
442437093189664 .15 0 0 -1 16 47 187 0 ?42 52 0 80 0 0 12 17 53 0 81 64 64 43 45
 65 0 62 +15 81 3 0 64 32 0 17 64 0 81 53 53 50 62 41 0 0 +17 45 0 44 42 49 50 5
3 65 0 46 -17 46 0 61 62 60 50 42 47 0 64 -14 255 32 159 82 ?67 0 81 22 83 +0 0
 67 0 39 81 1 82 363 84 32 85 0 0 86 87 14 67 137 86 ?34 32 58 22 35 -0 0 34 32
 39 50 255 83 2 0 32 88 35 0 +271050543150678e-34 203901631355602e-30 .15 0 0 1
 1 0 0 13 39 312 0 0 0 0 0 0 26 32 50 88 264 0 57 0 83 0 +.0560220913024489 .021
12087349656735 .150000012 1 0 0 0 0 -1 50 35 41 0 67 83 23 0 +271050543150678e-3
4 203901631355602e-30 0 0 0 1 1 0 0 14 57 240 89 ?0 34 44 22 88 +0 0 0 34 39 81
 1 89 365 84 57 90 0 86 91 92 14 34 179 91 ?57 67 61 22 23 -0 0 57 67 39 81 1 91
 366 84 34 93 0 89 0 94 80 255 1 84 95 96 9000 1 1 1 1 1 1 1 1 0 FFFFTFTFFFFFFF1
 81 1 93 181 97 34 0 91 85 90 98 82 255 1 94 949616769 80 1 97 0 99 8001 0 0 0 0
 3 5 0 0 0 FFFFTFTFFFFFFF2 81 1 85 161 97 32 0 82 100 93 101 81 1 90 336 97 57 0
 89 93 0 102 83 255 3 98 .792156862745098 .819607843137255 .933333333333333 83 3
 102 .792156862745098 .819607843137255 .933333333333333 81 1 100 139 97 67 0 86
 0 85 103 83 3 101 .792156862745098 .819607843137255 .933333333333333 81 1 86 36
4 84 67 100 0 82 89 104 83 3 103 .792156862745098 .819607843137255 .933333333333
333 82 1 104 941883521 79 255 15 99 SDL/TYSA_COLOUR79 14 96 SWEntUnchanged82 1 9
2 928841857 82 1 87 947781761 19 33 57 0 12 0 26 22 S0 74 4 CI16 index_map_offse
t0 0 1 dCCZ20 31 4 0 0 30 90 91 19 0 0 0 0 0 0 0 0 0 0 0 0 0 0 0 0 81 2 30 95 10
5 12 0 19 0 0 106 0 80 2 105 107 108 8004 0 0 0 0 3 5 0 0 0 FFTFFFFFFFFFFF2 3 83
 1 106 1 79 16 108 SDL/TYSA_DENSITY80 1 29 109 110 8017 0 0 0 0 0 0 0 0 0 TTTTTT
TTTTTTTF3 79 13 110 SDL/TYSA_NAME81 1 10 20 29 7 0 0 0 0 0 70 11 0 4 T7 0 0 1 20
 1 111 111 13 13 3 0 7 0 0 112 0 16 0 134 14 7 0 112 0 0 0 +113 114 29 15 8 0 17
 115 0 .3 -615e-6 0 19 16 1 0 7 0 0 13 V0 18 17 5 0 116 0 117 15 ?7 17 116 0 0 0
 0 17 118 112 0 0 +18 117 2 0 118 17 0 115 ?7 17 118 0 0 0 0 117 116 112 0 0 -29
 115 4 0 117 0 15 .3 615e-6 0 16 112 6 0 ?116 0 0 14 0 0 13 136 113 3 97 3 95 6
 FFF1 119 120 121 135 114 2 0 45 291 119 .3 615e-6 0 .297904984083785 .000751757
54308859 0 .292317834146917 .00111647310076999 0 .2832391674855485 .001717548993
116995 0 .2727638510733105 .002401734128833945 0 .2622890097692355 .003093148371
50869 0 .251814135815064 .003784066551404735 0 .241337843931188 .004468625299858
875 0 .230862161265605 .00516145375899976 0 .2203858382014565 .00584553816170969
 0 .2099111544141375 .00653834924156426 0 .1994358455532295 .00722265025326787 0
 .188961161961777 .00791546436518573 0 .178484838114123 .00859953663901671 0 .16
8010154067309 .00929234472619852 0 .1575348470275065 .00997666983236351 0 .14706
01564095102 .01066939053773888 0 .136583858847943 .01135381235682976 0 .12610808
1002565 .01204538152297814 0 .1156289892044612 .01273484757758416 0 .10654441386
34882 .01331877176387272 0 .098151476206991 .01375926166346622 0 .09115656236883
58 .01407505354493492 0 .0834590911030426 .01433267100844692 0 .0768097627687469
 .01449426632643782 0 .071208103954924 .01455304389632076 0 .0680570107705436 .0
1456484153549486 0 .0659559846118634 .01456613614602908 0 .0635049428575731 .014
54830766158958 0 .0589501852432484 .01450722740973552 0 .0526393729328738 .01434
217802527626 0 .0459763950033585 .01404116969115522 0 .04071427886623885 .013694
27089634006 0 .03685314861223085 .0133715858694841 0 .0336905280026766 .01306675
633536468 0 .0305256864431676 .01271359288265876 0 .0273574246256501 .0123046038
07145 0 .0238293477768756 .01177314506066746 0 .02029344904277045 .0111558108117
8768 0 .01675261349253385 .01040503880876842 0 .01391014568008668 .0096952683777
8904 0 .01141189872850098 .00896894267593932 0 .009247069544107 .008239122328444
03 0 .0070471016636079 .00737156353291515 0 .00520436825337569 .0064692982359128
6 0 .00370440686726622 .00556696021824286 0 .002492406306362735 .004671764118170
21 0 .000823776107687222 .003084389443628075 0 -.000563560510684523 792515529539
501e-31 0 .000823776107687273 -.00308438944362815 0 .00249240630636272 -.0046717
6411817019 0 .003704406867266225 -.00556696021824287 0 .00520436825337569 -.0064
6929823591286 0 .00704710166360792 -.00737156353291516 0 .00924706954410698 -.00
823912232844402 0 .01141189872850096 -.00896894267593932 0 .01391014568008672 -.
00969526837778906 0 .0167526134925338 -.0104050388087684 0 .02029344904277045 -.
01115581081178768 0 .02382934777687565 -.01177314506066746 0 .02735742462565005
 -.012304603807145 0 .0305256864431676 -.01271359288265876 0 .03369052800267655
 -.01306675633536466 0 .0368531486122309 -.0133715858694841 0 .0407142788662388
 -.01369427089634006 0 .0459763950033586 -.01404116969115522 0 .0526393729328738
 -.01434217802527628 0 .0589501852432483 -.01450722740973552 0 .0635049428575732
 -.01454830766158958 0 .0659559846118633 -.01456613614602908 0 .0680570107705436
 -.01456484153549486 0 .071208103954924 -.01455304389632076 0 .0768097627687469
 -.0144942663264378 0 .0834590911030426 -.01433267100844692 0 .0911565623688358
 -.01407505354493492 0 .0981514762069911 -.01375926166346622 0 .106544413863488
 -.01331877176387272 0 .1156289892044612 -.01273484757758416 0 .1261080810025648
 -.01204538152297814 0 .1365838588479428 -.01135381235682976 0 .1470601564095102
 -.01066939053773888 0 .1575348470275065 -.00997666983236352 0 .168010154067309
 -.00929234472619851 0 .178484838114123 -.00859953663901672 0 .1889611619617765
 -.00791546436518573 0 .1994358455532295 -.00722265025326786 0 .2099111544141375
 -.00653834924156426 0 .2203858382014565 -.00584553816170969 0 .230862161265605
 -.00516145375899976 0 .241337843931188 -.004468625299858875 0 .2518141358150635
 -.00378406655140474 0 .2622890097692355 -.00309314837150869 0 .2727638510733105
 -.00240173412883395 0 .2832391674855485 -.001717548993116995 0 .292317834146917
 -.001116473100769994 0 .297904984083785 -.00075175754308859 0 .3 -615e-6 0 127
 95 120 4 1 1 1 1 1 1 1 1 1 1 1 1 1 1 1 1 1 1 1 1 1 1 1 1 1 1 1 1 1 1 1 1 1 1 1
 1 1 1 1 1 1 1 1 1 1 1 1 1 1 1 1 1 1 1 1 1 1 1 1 1 1 1 1 1 1 1 1 1 1 1 1 1 1 1 1
 1 1 1 1 1 1 1 1 1 1 1 1 1 1 1 1 1 1 4 128 95 121 0 .01033176672580918 .02755355
191484145 .04477501437599325 .0619918890878921 .0792136742769245 .09643513673807
63 .1136569219271086 .1308783843882604 .1481001695772928 .1653167214692635 .1825
385066582955 .1997599691194475 .2169817543084795 .23419830620045 .25142009138948
25 .2686415538506345 .2858633390396665 .3030848015008185 .320322147091687 .33066
10967813635 .3444439053014235 .3547792436304875 .368562091684667 .37717455908872
65 .3823466935714615 .384069085539591 .387513925716762 .394408809862741 .4064842
97575228 .4185784380989155 .4272292644149465 .4324341717486865 .4376452636393655
 .4428645283400275 .4481047816677185 .453364927121588 .460421620890769 .46576487
8525566 .47117403778509 .474835155867093 .478565393973049 .482412614605373 .4864
66494475071 .488643966308192 .49102188077919 .493857902158305 .5 .50614209784169
6 .50897811922081 .511356033691809 .513533505524929 .517587385394628 .5214346060
26952 .525164844132907 .52882596221491 .534235121474435 .539578379109232 .546635
072878412 .551895218332282 .557135471659973 .562354736360635 .567565828251314 .5
72770735585054 .581421561901085 .593515702424773 .60559119013726 .61248607428323
9 .61593091446041 .617653306428539 .622825440911274 .631437908315334 .6452207563
69513 .655556094698577 .669338903218637 .679677852908314 .696915198499182 .71413
6660960334 .731358446149366 .748579908610518 .76580169379955 .783018245691521 .8
00240030880553 .817461493341705 .834683278530737 .851899830422708 .8691216156117
4 .886343078072892 .903564863261924 .920786325723076 .938008110912108 .955224985
624007 .972446448085159 .989668233274191 1 74 20 111 1 0 0 10 0 0 0 0 0 0 0 0 0
 0 0 0 0 0 0 0 0 0 0 74 20 6 1 0 0 2 0 0 0 0 0 0 0 0 0 0 0 0 0 0 0 0 0 0 0 80 2
 5 122 123 9000 0 0 0 0 3 5 0 0 0 TFFFFFFFFFFFFF9 1 79 18 123 MULTI_BODY_ID_2001
1 0 
